PathFileType	4	(X/Y/Z)	path1_11_0-607.trc
DataRate	CameraRate	NumFrames	NumMarkers	Units	OrigDataRate	OrigDataStartFrame	OrigNumFrames
30	30	4	22	m	30	0	607
Frame#	Time	Hip			RHip			RKnee			RAnkle			RBigToe			RSmallToe			RHeel			LHip			LKnee			LAnkle			LBigToe			LSmallToe			LHeel			Neck			Head			Nose			RShoulder			RElbow			RWrist			LShoulder			LElbow			LWrist		
		X1	Y1	Z1	X2	Y2	Z2	X3	Y3	Z3	X4	Y4	Z4	X5	Y5	Z5	X6	Y6	Z6	X7	Y7	Z7	X8	Y8	Z8	X9	Y9	Z9	X10	Y10	Z10	X11	Y11	Z11	X12	Y12	Z12	X13	Y13	Z13	X14	Y14	Z14	X15	Y15	Z15	X16	Y16	Z16	X17	Y17	Z17	X18	Y18	Z18	X19	Y19	Z19	X20	Y20	Z20	X21	Y21	Z21	X22	Y22	Z22
1	0.0333333333333333	2.7799486816998358	0.8294945374012004	0.6097158232748198	2.782659303006118	0.8206254727509081	0.5269867786841537	2.7770999928181466	0.45205950267889383	0.5669751046164646	2.8108247040266106	0.08272385382933477	0.5785267516433352	2.6247215114089393	0.022776794297792977	0.5567004895550077	2.666052480176156	0.02338458465718369	0.49009783600176327	2.852949879799906	0.04015435199572013	0.5547885195908199	2.752272981709456	0.8207333551150834	0.7225223893557229	2.7690595000096834	0.4342249873129747	0.6930304908448233	2.820080346010973	0.09008071018324401	0.7101118105612373	2.64572504970865	0.008049595031583387	0.6913050775158985	2.7059918732318087	0.032871192725882875	0.7919854289994702	2.8751384819523067	0.04439989741824824	0.7151629570442418	2.7483337412698243	1.4693187758243118	0.6389813443048517	2.6984626635252105	1.740053907986136	0.5679704198749811	2.618290864793987	1.6032570793582526	0.5997093806284663	2.786033564098039	1.3743308050586245	0.4719551914996174	2.8242746523404945	1.0807740135625232	0.45260550775865815	2.784815725593215	0.8355301324992028	0.4231212471123407	2.7261600180601606	1.3547976693279469	0.7929786250304725	2.807870682108783	1.0516165416230137	0.7852066878227991	2.782633869360237	0.8322478905174836	0.8393348285970623
2	0.0666666666666666	2.7746262858737993	0.8324620385151759	0.6146424103804712	2.777432100118432	0.8174562739412369	0.5326164788568831	2.7748656822713116	0.4535117384132096	0.5687332242309812	2.814489331307581	0.08773856807872142	0.5809393497237259	2.622554328508178	0.024776675019076815	0.5574893396595624	2.6627649450953954	0.023177360197277678	0.492990844728096	2.8566719911428393	0.039759394973832456	0.5606138105289636	2.7532431790153726	0.817079877516105	0.7181387886995695	2.769531830033809	0.437107566828205	0.6898035362608517	2.8149467957549685	0.09612740091378871	0.7050863717283706	2.6473475910802664	0.013356071293163251	0.6925597087853647	2.69640952737663	0.032283783163805105	0.7780474064229537	2.869365461187691	0.04299191452056414	0.7091861688290186	2.7455607816429026	1.470425380292915	0.6397240726804618	2.6925907581153106	1.7303934969314383	0.5974934162736957	2.6156418178237915	1.6030766714643367	0.5995460455948545	2.786191499810443	1.3704350377110488	0.470797544694766	2.8123420992470516	1.0790089598610608	0.4352819670342862	2.7832097384757164	0.837957445953724	0.42143802250384327	2.7321416091114505	1.3524403430954421	0.790239663399068	2.8090912801043424	1.051280368144055	0.7863299669922418	2.78959878293054	0.8315762755483719	0.8274921670033564
3	0.1	2.770333960069574	0.8349760646233702	0.6188085690673519	2.773189076307986	0.8152134413809498	0.5371605654475051	2.77355483982947	0.4545798213312159	0.5706939140017482	2.8173891715796344	0.09205565189964285	0.582760379960958	2.620768461292213	0.026367147265326657	0.558355672577799	2.6602103520325557	0.022828704179067457	0.49542504350938066	2.860134119138693	0.03944624222260771	0.5650992555944362	2.7535175659410576	0.8144592141346799	0.7146471696637209	2.7696232257590974	0.4397666672592322	0.6874981529369072	2.8104239341545387	0.10123874751956369	0.700624199266037	2.648852554497186	0.01768687045318757	0.6936559940762796	2.6886354419123926	0.03178530738977495	0.766715914306772	2.86476152921927	0.04179942274608134	0.7042034227974532	2.7431615376012513	1.4710912374219	0.6403511259642279	2.6863357593618935	1.7217620314729212	0.6201155354542314	2.6133704656410734	1.6028436904485448	0.5996445846306031	2.786212213468807	1.3672590396287017	0.46995840525332244	2.8026794440226777	1.0775125519456101	0.42145930387202113	2.781957439164885	0.839788251934096	0.42016799100050617	2.735397426743877	1.3504670364873945	0.7895671819606872	2.8098843686359047	1.0510935067174458	0.7873545303127796	2.794682296284618	0.831418707487091	0.8187967533917833
4	0.1333333333333333	2.7676098236890976	0.8367689746416119	0.621902549926645	2.770347509068906	0.8141228545689615	0.5401390229786522	2.7730171216529023	0.45528092916534035	0.5722581822991972	2.8193735365013906	0.09525226677304365	0.5839792595844241	2.6195830631989185	0.027257460299508957	0.5592628708374989	2.6587197488898364	0.022274877466138304	0.497226324518912	2.8630940908757885	0.03910065386113197	0.5678616811453333	2.7530497808585146	0.8130870422232545	0.7123807989040413	2.7693928311284557	0.44198382008289994	0.6866769932715893	2.807554779986258	0.10469598743211954	0.6976689347609986	2.6500363831397373	0.020472795409102826	0.6943101131391747	2.6834537621046897	0.03125090433455404	0.7591183901181038	2.8619438978561558	0.04088798120509901	0.7007081102401782	2.7413812860735383	1.4711155180742732	0.640828584045537	2.6796257123016693	1.7143780569709295	0.6322738095267498	2.6116512375364977	1.6025773759379809	0.5999786897716066	2.786057174248138	1.365135631075806	0.4696137506658928	2.796248241422772	1.076369761691932	0.41274579498584024	2.7811643889340667	0.8408640538880864	0.41953186306868245	2.735671286054303	1.3490821533417177	0.790924237008675	2.810211012011824	1.051002129508234	0.7881607713010542	2.7973597951137057	0.8316013898988301	0.813982799748928
